<?xml version="1.0" encoding="UTF-8" standalone="no"?>
<!-- Created with Inkscape (http://www.inkscape.org/) -->

<svg
   xmlns:dc="http://purl.org/dc/elements/1.1/"
   xmlns:cc="http://creativecommons.org/ns#"
   xmlns:rdf="http://www.w3.org/1999/02/22-rdf-syntax-ns#"
   xmlns:svg="http://www.w3.org/2000/svg"
   xmlns="http://www.w3.org/2000/svg"
   version="1.1"
   width="652.84631"
   height="551.13184"
   id="svg3511">
  <defs
     id="defs3513" />
  <metadata
     id="metadata3516">
    <rdf:RDF>
      <cc:Work
         rdf:about="">
        <dc:format>image/svg+xml</dc:format>
        <dc:type
           rdf:resource="http://purl.org/dc/dcmitype/StillImage" />
        <dc:title></dc:title>
      </cc:Work>
    </rdf:RDF>
  </metadata>
  <g
     transform="translate(-193.57144,-245.65147)"
     id="layer1">
    <g
       transform="translate(-816.73265,698.62618)"
       id="g4983">
      <path
         d="m 497.80316,-185.08883 -148.18552,72.84538 -137.17871,-91.90974 11.00681,-164.75511 148.18552,-72.84538 137.17871,91.90973 z"
         transform="matrix(0.9980928,-0.06173145,0.06173145,0.9980928,993.79444,10.877801)"
         id="path4895"
         style="fill:#ffcc00;fill-opacity:1;stroke:none" />
      <path
         d="m 712.76366,-337.10263 a 85.559921,85.559921 0 1 1 -171.11985,0 85.559921,85.559921 0 1 1 171.11985,0 z"
         transform="matrix(1.1818182,0,0,1.1818182,595.3908,110.53968)"
         id="path4899"
         style="fill:#0044aa;fill-opacity:1;stroke:none" />
      <g
         id="text4903"
         style="font-size:97.94608307px;font-style:normal;font-weight:bold;line-height:125%;letter-spacing:0px;word-spacing:0px;fill:#ffcc00;fill-opacity:1;stroke:none;font-family:Sans;-inkscape-font-specification:Courier New Bold">
        <path
           d="m 1368.9794,-317.85866 0,51.89038 c 0,6.52817 -1.0881,11.7172 -3.264,15.56711 -3.3479,5.97019 -8.2021,10.68496 -14.5628,14.14431 -6.305,3.45936 -12.9448,5.18904 -19.9192,5.18904 -8.9832,0 -21.2305,-3.79413 -36.7418,-11.3824 l 0,-28.20494 c 0,-4.12887 0.7812,-7.05816 2.3435,-8.78788 1.618,-1.78543 3.7104,-2.67817 6.277,-2.67822 2.5108,5e-5 4.5474,0.89279 6.1097,2.67822 1.6181,1.72972 2.4271,4.65901 2.4271,8.78788 l 0,16.82253 c 7.8673,3.73836 14.5907,5.60752 20.1703,5.60751 2.9572,1e-5 6.026,-0.66954 9.2064,-2.00866 3.1803,-1.39489 5.5795,-3.04087 7.1977,-4.93796 1.618,-1.89704 2.6781,-3.76621 3.1804,-5.60751 0.2789,-1.0043 0.4184,-3.40353 0.4184,-7.19769 l 0,-49.88172 -20.8398,0 c -4.129,8e-5 -7.0862,-0.78106 -8.8716,-2.34344 -1.7297,-1.618 -2.5945,-3.71035 -2.5945,-6.27706 0,-2.56653 0.8648,-4.63098 2.5945,-6.19337 1.7854,-1.61799 4.7426,-2.42703 8.8716,-2.42713 l 48.0404,0.0837 c 4.1289,1.1e-4 7.0581,0.78125 8.7879,2.34344 1.7854,1.56239 2.6781,3.62684 2.6782,6.19337 -10e-5,2.56671 -0.8928,4.65906 -2.6782,6.27706 -1.7298,1.56238 -4.659,2.34352 -8.7879,2.34344 l -10.0433,0"
           id="path3432"
           style="font-size:171.40563965px;fill:#ffcc00;font-family:Courier New;-inkscape-font-specification:Courier New Bold" />
      </g>
    </g>
    <g
       transform="translate(-945.42605,810.34905)"
       id="g4989">
      <path
         d="m 497.80316,-185.08883 -148.18552,72.84538 -137.17871,-91.90974 11.00681,-164.75511 148.18552,-72.84538 137.17871,91.90973 z"
         transform="matrix(0.9980928,-0.06173145,0.06173145,0.9980928,1305.6006,11.005655)"
         id="path4867"
         style="fill:#ffcc00;fill-opacity:1;stroke:none" />
      <path
         d="m 712.76366,-337.10263 a 85.559921,85.559921 0 1 1 -171.11985,0 85.559921,85.559921 0 1 1 171.11985,0 z"
         transform="matrix(1.1818182,0,0,1.1818182,907.19689,110.66753)"
         id="path4869"
         style="fill:#0044aa;fill-opacity:1;stroke:none" />
      <g
         id="text4871"
         style="font-size:97.94608307px;font-style:normal;font-weight:bold;line-height:125%;letter-spacing:0px;word-spacing:0px;fill:#ffcc00;fill-opacity:1;stroke:none;font-family:Sans;-inkscape-font-specification:Courier New Bold">
        <path
           d="m 1623.455,-237.80292 c -1.5066,1.78548 -2.7341,2.9293 -3.6826,3.43146 -0.8927,0.50217 -2.0087,0.75325 -3.3477,0.75325 -2.6225,0 -4.7427,-0.86484 -6.3608,-2.59452 -1.5623,-1.78547 -2.3434,-4.71476 -2.3434,-8.78789 l 0,-11.54979 c 0,-4.12888 0.7811,-7.05818 2.3434,-8.78789 1.6181,-1.78544 3.7383,-2.67817 6.3608,-2.67821 2.0086,4e-5 3.6825,0.5301 5.0216,1.59019 1.3949,1.06016 2.455,2.84563 3.1804,5.35643 0.7253,2.45505 1.4786,4.12893 2.2597,5.02165 1.6181,1.7297 4.4916,3.48727 8.6205,5.27273 4.1289,1.78549 8.6484,2.67823 13.5585,2.67821 7.644,2e-5 13.921,-1.78546 18.8312,-5.35643 3.1245,-2.17602 4.6868,-4.85423 4.6868,-8.03463 0,-2.12023 -0.7533,-4.10099 -2.2597,-5.94229 -1.5066,-1.89703 -3.9616,-3.45932 -7.3651,-4.68687 -2.2319,-0.8369 -7.2256,-1.98072 -14.9812,-3.43146 -9.3738,-1.72964 -16.4599,-3.82199 -21.2584,-6.27707 -4.7984,-2.45497 -8.5926,-5.91433 -11.3824,-10.37807 -2.7898,-4.46363 -4.1847,-9.28998 -4.1847,-14.47909 0,-8.20195 3.4315,-15.37174 10.2944,-21.5094 6.8629,-6.19327 15.7903,-9.28995 26.7821,-9.29005 4.4079,1e-4 8.481,0.50227 12.2194,1.50649 3.7941,0.94864 7.2255,2.42723 10.2944,4.43579 2.2317,-2.17594 4.4636,-3.26397 6.6955,-3.26407 2.5107,10e-5 4.5473,0.89284 6.1097,2.67821 1.618,1.72978 2.427,4.63118 2.4271,8.7042 l 0,12.8889 c -10e-5,4.12898 -0.8091,7.08617 -2.4271,8.87158 -1.5624,1.72974 -3.599,2.59458 -6.1097,2.59452 -2.1203,6e-5 -3.9616,-0.64159 -5.5238,-1.92497 -1.2276,-0.94846 -2.1482,-2.84553 -2.7619,-5.6912 -0.6138,-2.84553 -1.395,-4.88208 -2.3435,-6.10967 -1.6181,-2.12018 -4.0452,-3.90565 -7.2813,-5.35643 -3.2363,-1.45061 -6.9746,-2.17596 -11.2151,-2.17605 -6.1934,9e-5 -11.1034,1.45079 -14.7301,4.3521 -3.571,2.84568 -5.3565,5.83077 -5.3565,8.95527 0,2.12033 0.7254,4.18478 2.1761,6.19337 1.5064,1.95293 3.6825,3.48732 6.5281,4.60318 1.8971,0.78121 7.2256,2.03662 15.9856,3.76624 8.8157,1.72973 15.5671,3.6268 20.254,5.6912 4.7426,2.06451 8.6762,5.30068 11.8009,9.70852 3.1245,4.40793 4.6868,9.65276 4.6868,15.7345 0,8.48103 -2.9851,15.26025 -8.9552,20.33768 -7.9231,6.69554 -18.0222,10.0433 -30.2973,10.0433 -4.7427,0 -9.3738,-0.58586 -13.8932,-1.75757 -4.4638,-1.11593 -8.8159,-2.8177 -13.0563,-5.10535"
           id="path3429"
           style="font-size:171.40563965px;fill:#ffcc00;font-family:Courier New;-inkscape-font-specification:Courier New Bold" />
      </g>
    </g>
    <g
       transform="matrix(-1,0,0,-1,916.96744,147.35693)"
       id="g4956">
      <path
         d="m 497.80316,-185.08883 -148.18552,72.84538 -137.17871,-91.90974 11.00681,-164.75511 148.18552,-72.84538 137.17871,91.90973 z"
         transform="matrix(0.9980928,-0.06173145,0.06173145,0.9980928,233.39199,-72.361876)"
         id="path4875"
         style="fill:#ffcc00;fill-opacity:1;stroke:#0044aa;stroke-width:7.5;stroke-miterlimit:4;stroke-opacity:1;stroke-dasharray:none" />
      <path
         d="M 577.5,-374.07579 715.60218,-290.24137 575.25,-210.57485 436.39522,-291.47881 z"
         id="path4948"
         style="fill:#5599ff;fill-opacity:1;stroke:none" />
      <path
         d="m 577.48055,-374.04782 -0.1835,-158.08855 138.71854,81.33359 -0.60457,160.63946 z"
         id="path4950"
         style="fill:#68a4ff;fill-opacity:1;stroke:none" />
      <path
         d="m 577.41747,-374.08053 -0.12658,-157.99282 -140.25405,80.01075 -0.83912,160.886 z"
         id="rect4945"
         style="fill:#3485ff;fill-opacity:1;stroke:none" />
      <path
         d="m 712.76366,-337.10263 a 85.559921,85.559921 0 1 1 -171.11985,0 85.559921,85.559921 0 1 1 171.11985,0 z"
         transform="matrix(1.1818182,0,0,1.1818182,-165.01165,27.300004)"
         id="path4877"
         style="fill:#0044aa;fill-opacity:1;stroke:none" />
      <g
         id="text4907"
         style="font-size:97.94608307px;font-style:normal;font-variant:normal;font-weight:bold;font-stretch:normal;line-height:125%;letter-spacing:0px;word-spacing:0px;fill:#68a4ff;fill-opacity:1;stroke:none;font-family:Droid Sans;-inkscape-font-specification:Droid Sans Bold">
        <path
           d="m 604.05745,-309.91357 -55.65662,0 0,-14.73018 14.89756,-6.86292 0,-79.17467 -14.89756,-6.86292 0,-14.73018 55.65662,0 0,14.73018 -14.89757,6.86292 0,79.17467 14.89757,6.86292 0,14.73018"
           id="path3435"
           style="font-size:171.40563965px;fill:#68a4ff;font-family:Droid Sans;-inkscape-font-specification:Droid Sans Bold" />
      </g>
    </g>
    <g
       transform="matrix(-1,0,0,-1,1093.7441,256.25137)"
       id="g4967">
      <path
         d="m 497.80316,-185.08883 -148.18552,72.84538 -137.17871,-91.90974 11.00681,-164.75511 148.18552,-72.84538 137.17871,91.90973 z"
         transform="matrix(0.9980928,-0.06173145,0.06173145,0.9980928,233.39199,-72.361876)"
         id="path4969"
         style="fill:#ffcc00;fill-opacity:1;stroke:#0044aa;stroke-width:7.5;stroke-miterlimit:4;stroke-opacity:1;stroke-dasharray:none" />
      <path
         d="M 577.5,-374.07579 715.60218,-290.24137 575.25,-210.57485 436.39522,-291.47881 z"
         id="path4971"
         style="fill:#5599ff;fill-opacity:1;stroke:none" />
      <path
         d="m 577.48055,-374.04782 -0.1835,-158.08855 138.71854,81.33359 -0.60457,160.63946 z"
         id="path4973"
         style="fill:#68a4ff;fill-opacity:1;stroke:none" />
      <path
         d="m 577.41747,-374.08053 -0.12658,-157.99282 -140.25405,80.01075 -0.83912,160.886 z"
         id="path4975"
         style="fill:#3485ff;fill-opacity:1;stroke:none" />
      <path
         d="m 712.76366,-337.10263 a 85.559921,85.559921 0 1 1 -171.11985,0 85.559921,85.559921 0 1 1 171.11985,0 z"
         transform="matrix(1.1818182,0,0,1.1818182,-165.01165,27.300004)"
         id="path4977"
         style="fill:#0044aa;fill-opacity:1;stroke:none" />
      <g
         id="text4979"
         style="font-size:97.94608307px;font-style:normal;font-variant:normal;font-weight:bold;font-stretch:normal;line-height:125%;letter-spacing:0px;word-spacing:0px;fill:#68a4ff;fill-opacity:1;stroke:none;font-family:Droid Sans;-inkscape-font-specification:Droid Sans Bold">
        <path
           d="m 631.09067,-371.13587 c -1.2e-4,9.42959 -1.11604,18.02218 -3.34777,25.7778 -2.17616,7.75568 -5.52392,14.39541 -10.0433,19.91921 -4.51958,5.52382 -10.23868,9.79222 -17.1573,12.8052 -6.863,3.01299 -14.98133,4.51949 -24.355,4.51949 -9.3738,0 -17.52002,-1.5065 -24.43869,-4.51949 -6.86296,-3.01298 -12.55416,-7.28138 -17.07361,-12.8052 -4.46371,-5.5238 -7.81147,-12.16353 -10.0433,-19.91921 -2.17606,-7.81141 -3.26408,-16.4598 -3.26407,-25.94519 -10e-6,-9.48527 1.08801,-18.07786 3.26407,-25.7778 2.23183,-7.75557 5.60749,-14.3674 10.12699,-19.83552 4.51946,-5.46791 10.21065,-9.68051 17.07361,-12.63782 6.91867,-3.01287 15.09279,-4.51936 24.52239,-4.51948 9.37367,1.2e-4 17.492,1.50661 24.355,4.51948 6.86282,2.95731 12.52612,7.19781 16.98991,12.72151 4.51938,5.46812 7.86714,12.07996 10.0433,19.83552 2.23173,7.69994 3.34765,16.32043 3.34777,25.8615 m -83.02461,0 c -3e-5,6.4166 0.55793,12.19149 1.67389,17.32469 1.11588,5.07748 2.81766,9.40168 5.10534,12.97259 2.34339,3.51518 5.27268,6.22129 8.78789,8.11833 3.51509,1.89709 7.6998,2.84563 12.55412,2.84561 4.96578,2e-5 9.20628,-0.94852 12.72151,-2.84561 3.57087,-1.89704 6.47227,-4.60315 8.70419,-8.11833 2.28756,-3.57091 3.96144,-7.89511 5.02165,-12.97259 1.11583,-5.1332 1.67379,-10.90809 1.67389,-17.32469 -10e-5,-6.41649 -0.55806,-12.16348 -1.67389,-17.241 -1.06021,-5.13316 -2.73409,-9.48525 -5.02165,-13.05629 -2.23192,-3.57086 -5.10542,-6.30486 -8.62049,-8.20203 -3.51523,-1.89696 -7.72783,-2.8455 -12.63782,-2.8456 -4.85432,1e-4 -9.06693,0.94864 -12.63782,2.8456 -3.571,1.89717 -6.52819,4.63117 -8.87158,8.20203 -2.28768,3.57104 -3.98946,7.92313 -5.10534,13.05629 -1.11596,5.07752 -1.67392,10.82451 -1.67389,17.241"
           id="path3438"
           style="font-size:171.40563965px;fill:#68a4ff;font-family:Droid Sans;-inkscape-font-specification:Droid Sans Bold" />
      </g>
    </g>
  </g>
</svg>
