<?xml version="1.0" encoding="UTF-8" standalone="no"?>
<!-- Created with Inkscape (http://www.inkscape.org/) -->

<svg
   xmlns:dc="http://purl.org/dc/elements/1.1/"
   xmlns:cc="http://creativecommons.org/ns#"
   xmlns:rdf="http://www.w3.org/1999/02/22-rdf-syntax-ns#"
   xmlns:svg="http://www.w3.org/2000/svg"
   xmlns="http://www.w3.org/2000/svg"
   xmlns:sodipodi="http://sodipodi.sourceforge.net/DTD/sodipodi-0.dtd"
   xmlns:inkscape="http://www.inkscape.org/namespaces/inkscape"
   width="664.56897"
   height="586.06183"
   id="svg5229"
   version="1.1"
   inkscape:version="0.48.4 r9939"
   sodipodi:docname="IOJS-Kitch.svg">
  <defs
     id="defs5231">
    <filter
       id="filter5298"
       color-interpolation-filters="sRGB"
       height="1"
       width="1"
       y="0"
       x="0">
      <feColorMatrix
         id="feColorMatrix5300"
         type="saturate"
         values="0" />
    </filter>
  </defs>
  <sodipodi:namedview
     id="base"
     pagecolor="#ffffff"
     bordercolor="#666666"
     borderopacity="1.0"
     inkscape:pageopacity="0.0"
     inkscape:pageshadow="2"
     inkscape:zoom="0.35"
     inkscape:cx="329.65654"
     inkscape:cy="111.08273"
     inkscape:document-units="px"
     inkscape:current-layer="layer1"
     showgrid="false"
     inkscape:window-width="1920"
     inkscape:window-height="1056"
     inkscape:window-x="0"
     inkscape:window-y="24"
     inkscape:window-maximized="1"
     fit-margin-top="0"
     fit-margin-left="0"
     fit-margin-right="0"
     fit-margin-bottom="0" />
  <metadata
     id="metadata5234">
    <rdf:RDF>
      <cc:Work
         rdf:about="">
        <dc:format>image/svg+xml</dc:format>
        <dc:type
           rdf:resource="http://purl.org/dc/dcmitype/StillImage" />
        <dc:title></dc:title>
      </cc:Work>
    </rdf:RDF>
  </metadata>
  <g
     inkscape:label="Layer 1"
     inkscape:groupmode="layer"
     id="layer1"
     transform="translate(-45.343456,-57.380913)">
    <g
       transform="matrix(0.16286071,0,0,0.16286071,-65.895206,380.91394)"
       id="g4524">
      <path
         inkscape:connector-curvature="0"
         style="fill:#0044aa;fill-opacity:1;stroke:none"
         d="m 2468.375,-1986.5625 c -18.2052,-0.2072 -34.6366,108.2734 -47.6562,121 -13.0195,12.7265 -121.8554,26.6698 -122.0626,44.875 -0.2071,18.2052 108.2734,34.6367 121,47.6563 6.7493,6.9046 13.8579,40.7269 21.75,71.0312 l 5.0626,2499.375 c -0.9633,24.2574 -2.1025,54.65575 -26,71.84375 -0.2873,0.2067 0.271,0.65625 0.625,0.65625 l 88.7187,0 c 0.3539,0 0.921,-0.42125 0.6563,-0.65625 -21.8565,-19.3994 -22.798,-45.97005 -24,-71.84375 l 2.7187,-2500.0312 c 8.4468,-29.8044 16.2186,-62.653 23.0313,-69.3126 13.0196,-12.7264 121.8241,-26.6697 122.0312,-44.875 0.2072,-18.2052 -108.2735,-34.6367 -121,-47.6562 -12.7265,-13.0195 -26.6698,-121.8554 -44.875,-122.0625 z m 1476.4375,596 c -18.2052,-0.2072 -34.6367,108.2735 -47.6563,121 -13.0194,12.7266 -121.8552,26.6697 -122.0624,44.875 -0.2072,18.2052 108.2734,34.6367 121,47.6563 6.7492,6.9046 13.8577,40.7269 21.75,71.0312 l 5.0624,1903.375 c -0.9632,24.2574 -2.1023,54.65576 -26,71.84375 -0.2872,0.20665 0.2711,0.65625 0.625,0.65625 l 88.7188,0 c 0.3539,0 0.9209,-0.42132 0.6562,-0.65625 -21.8564,-19.39938 -22.7978,-45.96999 -24,-71.84375 l 2.7188,-1904.0312 c 8.4468,-29.8044 16.2185,-62.6531 23.0312,-69.3126 13.0197,-12.7264 121.8242,-26.6696 122.0313,-44.875 0.2072,-18.2052 -108.2735,-34.6367 -121,-47.6562 -12.7265,-13.0195 -26.6698,-121.8553 -44.875,-122.0625 z m -2418,86 c -18.2052,-0.2071 -34.6367,108.2735 -47.6563,121 -13.0195,12.7266 -121.8552,26.6698 -122.0624,44.875 -0.2072,18.2052 108.2733,34.6367 121,47.6563 6.7491,6.9046 13.8577,40.7269 21.75,71.0312 l 5.0624,1817.375 c -0.9631,24.2574 -2.1024,54.65576 -26,71.84375 -0.2871,0.20665 0.2711,0.65625 0.625,0.65625 l 88.7188,0 c 0.3539,0 0.9209,-0.42132 0.6562,-0.65625 -21.8563,-19.39938 -22.7979,-45.96999 -24,-71.84375 l 2.7188,-1818.0312 c 8.4468,-29.8044 16.2185,-62.6531 23.0312,-69.3126 13.0197,-12.7265 121.8242,-26.6698 122.0313,-44.875 0.2072,-18.2052 -108.2735,-34.6367 -121,-47.6562 -12.7265,-13.0195 -26.6698,-121.8553 -44.875,-122.0625 z m 1394.8437,502 c -18.2051,-0.20717 -34.6366,108.27347 -47.6562,121 -13.0195,12.72653 -121.8553,26.6698 -122.0625,44.875 -0.2071,18.20521 108.2734,34.63673 121,47.65625 6.7492,6.90461 13.8578,40.72696 21.75,71.03125 l 5.0625,1315.375 c -0.9632,24.25741 -2.1024,54.65576 -26,71.84375 -0.2872,0.20665 0.2711,0.65625 0.625,0.65625 l 88.7188,0 c 0.3539,0 0.9209,-0.42132 0.6562,-0.65625 -21.8564,-19.39938 -22.7979,-45.96998 -24,-71.84375 l 2.7188,-1316.03125 c 8.4468,-29.80433 16.2185,-62.65307 23.0312,-69.3125 13.0196,-12.72653 121.8241,-26.6698 122.0312,-44.875 0.2072,-18.20521 -108.2734,-34.63673 -121,-47.65625 -12.7265,-13.01952 -26.6698,-121.85533 -44.875,-122.0625 z m 681.2188,868 c -18.2052,-0.20717 -34.6367,108.27347 -47.6562,121 -13.0195,12.72653 -121.8553,26.6698 -122.0626,44.875 -0.2071,18.20521 108.2734,34.63673 121,47.65625 6.7493,6.90461 13.8579,40.72696 21.75,71.03125 l 5.0626,447.375 c -0.9633,24.2574 -2.1025,54.65576 -26,71.84375 -0.2873,0.20665 0.271,0.65625 0.625,0.65625 l 88.7187,0 c 0.3539,0 0.921,-0.42132 0.6563,-0.65625 -21.8565,-19.39938 -22.7979,-45.96999 -24,-71.84375 l 2.7187,-448.03125 c 8.4468,-29.80433 16.2186,-62.65307 23.0313,-69.3125 13.0196,-12.72653 121.8241,-26.6698 122.0312,-44.875 0.2072,-18.20521 -108.2735,-34.63673 -121,-47.65625 -12.7265,-13.01952 -26.6698,-121.85533 -44.875,-122.0625 z m -1433.9375,106 c -18.2052,-0.20717 -34.6367,108.27347 -47.6563,121 -13.0194,12.72653 -121.8552,26.6698 -122.0624,44.875 -0.2072,18.20521 108.2734,34.63673 121,47.65625 6.7492,6.90461 13.8577,40.72696 21.75,71.03125 l 5.0624,341.375 c -0.9632,24.2574 -2.1023,54.65576 -26,71.84375 -0.2872,0.20665 0.2711,0.65625 0.625,0.65625 l 88.7188,0 c 0.3539,0 0.9209,-0.42132 0.6562,-0.65625 -21.8564,-19.39938 -22.7978,-45.96999 -24,-71.84375 l 2.7188,-342.03125 c 8.4468,-29.80433 16.2185,-62.65307 23.0312,-69.3125 13.0197,-12.72653 121.8242,-26.6698 122.0313,-44.875 0.2072,-18.20521 -108.2735,-34.63673 -121,-47.65625 -12.7265,-13.01952 -26.6698,-121.85533 -44.875,-122.0625 z"
         id="path4526" />
      <path
         style="fill:#0044aa;fill-opacity:1;stroke:none"
         d="m 3941.7812,824.13972 c -65.5824,-0.0644 -126.8454,130.32096 -180.25,212.90618 -47.6098,-82.82167 -100.3238,-204.8439 -163.75,-204.90618 -90.2986,-0.0887 -172.4401,247.13808 -237.0937,276.37498 -17.5825,7.951 -70.4265,16.2533 -137.9063,24.9688 -36.5666,-5.7005 -63.6093,-11.1807 -75.0312,-16.5 -63.0479,-29.3624 -131.6701,-276.75511 -221.9688,-276.84378 -87.3642,-0.0858 -167.0755,231.32498 -230.7187,272.84378 -4.6666,-1.3444 -8.4761,-2.6791 -11.3125,-4 -63.0479,-29.3624 -131.6701,-276.75511 -221.9688,-276.84378 -53.8246,-0.0529 -104.6957,87.69903 -150.75,164.8437 -40.6305,-75.08795 -85.3471,-156.79273 -137.25,-156.8437 -90.2986,-0.0887 -172.4401,247.13808 -237.0937,276.37498 -16.4214,7.4259 -63.5669,15.1602 -124.6875,23.25 -31.0734,-5.0888 -53.9836,-10.0001 -64.25,-14.7812 -63.0479,-29.3624 -131.6701,-276.75511 -221.9688,-276.84378 -90.2986,-0.0887 -172.4401,247.13808 -237.0937,276.37498 -64.6536,29.2369 -604.52087,63.3141 -605.65625,104.75 -1.13538,41.4359 536.82705,76.5439 599.87495,105.9062 63.048,29.3624 131.6702,276.7239 221.9688,276.8126 90.2986,0.089 172.4401,-247.1381 237.0938,-276.375 16.4159,-7.4235 63.5337,-15.1632 124.625,-23.25 31.1057,5.0924 54.0391,10.028 64.3124,14.8124 63.048,29.3624 131.6702,276.7239 221.9688,276.8126 53.8218,0.053 104.6977,-87.6708 150.75,-164.8126 40.6277,75.0827 85.3516,156.7616 137.25,156.8126 87.3642,0.086 167.0756,-231.325 230.7188,-272.8438 4.6665,1.3443 8.476,2.7103 11.3124,4.0312 63.048,29.3624 131.6702,276.7239 221.9688,276.8126 90.2986,0.089 172.4401,-247.1381 237.0938,-276.375 17.577,-7.9486 70.3938,-16.2563 137.8437,-24.9688 36.5993,5.704 63.6651,11.2088 75.0937,16.5312 63.048,29.3624 131.6702,276.7239 221.9688,276.8126 65.5797,0.064 126.8471,-130.2892 180.25,-212.875 47.608,82.8215 100.327,204.8127 163.75,204.875 90.2986,0.089 172.4401,-247.1381 237.0938,-276.375 64.6536,-29.237 604.5208,-63.2829 605.6562,-104.7188 1.1354,-41.4359 -536.8271,-76.5439 -599.875,-105.9062 -63.0479,-29.3624 -131.6701,-276.75511 -221.9688,-276.84378 z"
         id="path4528"
         inkscape:connector-curvature="0" />
    </g>
    <g
       id="g5075"
       transform="matrix(0.53073375,0,0,0.53073375,961.3956,718.33469)">
      <path
         transform="matrix(0.9980928,-0.06173145,0.06173145,0.9980928,-1598.8746,-36.776092)"
         d="m 497.80316,-185.08883 -148.18552,72.84538 -137.17871,-91.90974 11.00681,-164.75511 148.18552,-72.84538 137.17871,91.90973 z"
         inkscape:randomized="0"
         inkscape:rounded="0"
         inkscape:flatsided="true"
         sodipodi:arg2="1.1139055"
         sodipodi:arg1="0.59030675"
         sodipodi:r2="170.22926"
         sodipodi:r1="165.12238"
         sodipodi:cy="-276.99857"
         sodipodi:cx="360.62445"
         sodipodi:sides="6"
         id="path4911"
         style="fill:#ffcc00;fill-opacity:1;stroke:none"
         sodipodi:type="star" />
      <path
         transform="matrix(1.1818182,0,0,1.1818182,-1997.2782,62.885788)"
         d="m 712.76366,-337.10263 c 0,47.25344 -38.30648,85.55992 -85.55992,85.55992 -47.25344,0 -85.55993,-38.30648 -85.55993,-85.55992 0,-47.25344 38.30649,-85.55992 85.55993,-85.55992 47.25344,0 85.55992,38.30648 85.55992,85.55992 z"
         sodipodi:ry="85.559921"
         sodipodi:rx="85.559921"
         sodipodi:cy="-337.10263"
         sodipodi:cx="627.20374"
         id="path4919"
         style="fill:#fe5210;fill-opacity:1;stroke:none"
         sodipodi:type="arc" />
      <text
         sodipodi:linespacing="125%"
         id="text4927"
         y="-281.23254"
         x="-1307.3838"
         style="font-size:97.94608307px;font-style:normal;font-weight:bold;line-height:125%;letter-spacing:0px;word-spacing:0px;fill:#ffcc00;fill-opacity:1;stroke:none;font-family:Sans;-inkscape-font-specification:Courier New Bold"
         xml:space="preserve"><tspan
           style="font-size:171.40563965px;font-weight:bold;fill:#ffcc00;fill-opacity:1;font-family:Courier New;-inkscape-font-specification:Courier New Bold"
           y="-281.23254"
           x="-1307.3838"
           id="tspan4929"
           sodipodi:role="line">J</tspan></text>
    </g>
    <g
       transform="matrix(0.53073375,0,0,0.53073375,1041.0057,578.22098)"
       id="g5081">
      <path
         sodipodi:type="star"
         style="fill:#ffcc00;fill-opacity:1;stroke:none"
         id="path4913"
         sodipodi:sides="6"
         sodipodi:cx="360.62445"
         sodipodi:cy="-276.99857"
         sodipodi:r1="165.12238"
         sodipodi:r2="170.22926"
         sodipodi:arg1="0.59030675"
         sodipodi:arg2="1.1139055"
         inkscape:flatsided="true"
         inkscape:rounded="0"
         inkscape:randomized="0"
         d="m 497.80316,-185.08883 -148.18552,72.84538 -137.17871,-91.90974 11.00681,-164.75511 148.18552,-72.84538 137.17871,91.90973 z"
         transform="matrix(0.9980928,-0.06173145,0.06173145,0.9980928,-1446.8746,229.22391)" />
      <path
         sodipodi:type="arc"
         style="fill:#fe5210;fill-opacity:1;stroke:none"
         id="path4921"
         sodipodi:cx="627.20374"
         sodipodi:cy="-337.10263"
         sodipodi:rx="85.559921"
         sodipodi:ry="85.559921"
         d="m 712.76366,-337.10263 c 0,47.25344 -38.30648,85.55992 -85.55992,85.55992 -47.25344,0 -85.55993,-38.30648 -85.55993,-85.55992 0,-47.25344 38.30649,-85.55992 85.55993,-85.55992 47.25344,0 85.55992,38.30648 85.55992,85.55992 z"
         transform="matrix(1.1818182,0,0,1.1818182,-1845.2782,328.88579)" />
      <text
         xml:space="preserve"
         style="font-size:97.94608307px;font-style:normal;font-weight:bold;line-height:125%;letter-spacing:0px;word-spacing:0px;fill:#ffcc00;fill-opacity:1;stroke:none;font-family:Sans;-inkscape-font-specification:Courier New Bold"
         x="-1155.3838"
         y="-15.232576"
         id="text4931"
         sodipodi:linespacing="125%"><tspan
           sodipodi:role="line"
           id="tspan4933"
           x="-1155.3838"
           y="-15.232576"
           style="font-size:171.40563965px;font-weight:bold;fill:#ffcc00;fill-opacity:1;font-family:Courier New;-inkscape-font-specification:Courier New Bold">S</tspan></text>
    </g>
    <g
       transform="matrix(0.53073375,0,0,0.53073375,1041.0057,578.22098)"
       id="g5093">
      <path
         sodipodi:type="star"
         style="fill:#ffcc00;fill-opacity:1;stroke:none"
         id="path4915"
         sodipodi:sides="6"
         sodipodi:cx="360.62445"
         sodipodi:cy="-276.99857"
         sodipodi:r1="165.12238"
         sodipodi:r2="170.22926"
         sodipodi:arg1="0.59030675"
         sodipodi:arg2="1.1139055"
         inkscape:flatsided="true"
         inkscape:rounded="0"
         inkscape:randomized="0"
         d="m 497.80316,-185.08883 -148.18552,72.84538 -137.17871,-91.90974 11.00681,-164.75511 148.18552,-72.84538 137.17871,91.90973 z"
         transform="matrix(0.9980928,-0.06173145,0.06173145,0.9980928,-1901.5163,-33.947662)" />
      <path
         sodipodi:type="arc"
         style="fill:#0044aa;fill-opacity:1;stroke:none"
         id="path4923"
         sodipodi:cx="627.20374"
         sodipodi:cy="-337.10263"
         sodipodi:rx="85.559921"
         sodipodi:ry="85.559921"
         d="m 712.76366,-337.10263 c 0,47.25344 -38.30648,85.55992 -85.55992,85.55992 -47.25344,0 -85.55993,-38.30648 -85.55993,-85.55992 0,-47.25344 38.30649,-85.55992 85.55993,-85.55992 47.25344,0 85.55992,38.30648 85.55992,85.55992 z"
         transform="matrix(1.1818182,0,0,1.1818182,-2299.9199,65.714218)" />
      <text
         xml:space="preserve"
         style="font-size:97.94608307px;font-style:normal;font-weight:bold;line-height:125%;letter-spacing:0px;word-spacing:0px;fill:#ffcc00;fill-opacity:1;stroke:none;font-family:Sans;-inkscape-font-specification:Courier New Bold"
         x="-1610.0255"
         y="-278.40411"
         id="text4935"
         sodipodi:linespacing="125%"><tspan
           sodipodi:role="line"
           id="tspan4937"
           x="-1610.0255"
           y="-278.40411"
           style="font-size:171.40563965px;font-weight:bold;fill:#ffcc00;fill-opacity:1;font-family:Courier New;-inkscape-font-specification:Courier New Bold">I</tspan></text>
    </g>
    <g
       id="g5087"
       transform="matrix(0.53073375,0,0,0.53073375,1121.6771,438.10726)">
      <path
         transform="matrix(0.9980928,-0.06173145,0.06173145,0.9980928,-1749.5163,232.05234)"
         d="m 497.80316,-185.08883 -148.18552,72.84538 -137.17871,-91.90974 11.00681,-164.75511 148.18552,-72.84538 137.17871,91.90973 z"
         inkscape:randomized="0"
         inkscape:rounded="0"
         inkscape:flatsided="true"
         sodipodi:arg2="1.1139055"
         sodipodi:arg1="0.59030675"
         sodipodi:r2="170.22926"
         sodipodi:r1="165.12238"
         sodipodi:cy="-276.99857"
         sodipodi:cx="360.62445"
         sodipodi:sides="6"
         id="path4917"
         style="fill:#ffcc00;fill-opacity:1;stroke:none"
         sodipodi:type="star" />
      <path
         transform="matrix(1.1818182,0,0,1.1818182,-2147.9199,331.71422)"
         d="m 712.76366,-337.10263 c 0,47.25344 -38.30648,85.55992 -85.55992,85.55992 -47.25344,0 -85.55993,-38.30648 -85.55993,-85.55992 0,-47.25344 38.30649,-85.55992 85.55993,-85.55992 47.25344,0 85.55992,38.30648 85.55992,85.55992 z"
         sodipodi:ry="85.559921"
         sodipodi:rx="85.559921"
         sodipodi:cy="-337.10263"
         sodipodi:cx="627.20374"
         id="path4925"
         style="fill:#0044aa;fill-opacity:1;stroke:none"
         sodipodi:type="arc" />
      <text
         sodipodi:linespacing="125%"
         id="text4939"
         y="-12.404146"
         x="-1458.0255"
         style="font-size:97.94608307px;font-style:normal;font-weight:bold;line-height:125%;letter-spacing:0px;word-spacing:0px;fill:#ffcc00;fill-opacity:1;stroke:none;font-family:Sans;-inkscape-font-specification:Courier New Bold"
         xml:space="preserve"><tspan
           style="font-size:171.40563965px;font-weight:bold;fill:#ffcc00;fill-opacity:1;font-family:Courier New;-inkscape-font-specification:Courier New Bold"
           y="-12.404146"
           x="-1458.0255"
           id="tspan4941"
           sodipodi:role="line">O</tspan></text>
    </g>
    <g
       transform="matrix(0.53073375,0,0,0.53073375,-30.014999,-238.04753)"
       id="g5120">
      <g
         id="g5122"
         transform="translate(551.38037,1043.5765)">
        <g
           style="filter:url(#filter5298)"
           id="g5124"
           transform="matrix(1.2149639,0,0,1.2149639,-14.262309,-16.959061)" />
        <path
           style="color:#000000;fill:#333333;fill-opacity:1;fill-rule:nonzero;stroke:#ffffff;stroke-width:2;stroke-linecap:round;stroke-linejoin:round;stroke-miterlimit:4;stroke-opacity:0;stroke-dasharray:12, 4;stroke-dashoffset:0;marker:none;visibility:visible;display:inline;overflow:visible;enable-background:accumulate"
           id="path5126"
           transform="matrix(2.5020123,0,0,2.5020123,110.1955,-337.07725)"
           d="m 208.89272,172.17495 0,60.67378 -52.54503,30.33689 -52.54504,-30.33689 0,-60.67378 52.54504,-30.33689 z"
           inkscape:connector-curvature="0" />
        <g
           id="g5128"
           transform="matrix(1.8730493,0,0,1.8730493,-408.1038,-145.82593)">
          <g
             id="g5130"
             transform="matrix(0.58893211,0,0,0.58893211,302.55764,-71.925968)">
            <path
               style="color:#000000;fill:#ffa158;fill-opacity:1;fill-rule:nonzero;stroke:none;stroke-width:1;marker:none;visibility:visible;display:inline;overflow:visible;enable-background:accumulate"
               id="path5132"
               transform="matrix(0.84074604,0,0,0.84074604,229.31262,-144.45475)"
               d="m 211.25764,658.03284 a 82.368585,82.368585 0 1 1 -164.73717,0 82.368585,82.368585 0 1 1 164.73717,0 z"
               inkscape:connector-curvature="0" />
            <path
               style="color:#000000;fill:#ffcba2;fill-opacity:1;fill-rule:nonzero;stroke:#ffffff;stroke-width:0.84074605;stroke-linecap:round;stroke-linejoin:round;stroke-miterlimit:4;stroke-opacity:0;stroke-dasharray:none;stroke-dashoffset:0;marker:none;visibility:visible;display:inline;overflow:visible;enable-background:accumulate"
               id="path5134"
               d="m 271.62336,429.57575 c 3.08155,9.79523 8.27384,18.65618 15.05461,26.03685 l 101.993,0 c 6.78077,-7.38067 11.97306,-16.24162 15.05461,-26.03685 l -132.10222,0 z"
               inkscape:connector-curvature="0" />
            <path
               style="fill:#fe5210;fill-opacity:1;stroke:#ffffff;stroke-width:0.84074605px;stroke-linecap:butt;stroke-linejoin:miter;stroke-opacity:0"
               id="path5136"
               d="m 269.90203,423.0751 c 1.12236,5.34582 2.87196,10.47677 5.14957,15.29107 l 125.24489,0 c 2.2776,-4.8143 4.02721,-9.94525 5.14957,-15.29107 l -135.54403,0 z"
               inkscape:connector-curvature="0" />
            <path
               style="color:#000000;fill:#ffcba2;fill-opacity:1;fill-rule:nonzero;stroke:#ffffff;stroke-width:1;stroke-linecap:round;stroke-linejoin:round;stroke-miterlimit:4;stroke-opacity:0;stroke-dasharray:none;stroke-dashoffset:0;marker:none;visibility:visible;display:inline;overflow:visible;enable-background:accumulate"
               id="path5138"
               transform="matrix(0.83812389,-0.06634952,0.06634952,0.83812389,36.242635,-103.88251)"
               d="m 362.72113,675.81189 a 23.129307,13.532904 0 1 1 -46.25861,0 23.129307,13.532904 0 1 1 46.25861,0 z"
               inkscape:connector-curvature="0" />
            <path
               style="color:#000000;fill:#fe5210;fill-opacity:1;fill-rule:nonzero;stroke:#ffffff;stroke-width:1;stroke-linecap:round;stroke-linejoin:round;stroke-miterlimit:4;stroke-opacity:0;stroke-dasharray:none;stroke-dashoffset:0;marker:none;visibility:visible;display:inline;overflow:visible;enable-background:accumulate"
               id="path5140"
               transform="matrix(0.83812389,-0.06634952,0.06634952,0.83812389,36.568004,-103.88251)"
               d="m 356.42629,675.81189 a 16.834467,9.6749811 0 1 1 -33.66893,0 16.834467,9.6749811 0 1 1 33.66893,0 z"
               inkscape:connector-curvature="0" />
            <path
               style="color:#000000;fill:#fe7110;fill-opacity:1;fill-rule:nonzero;stroke:#ffffff;stroke-width:0.84074605;stroke-linecap:round;stroke-linejoin:round;stroke-miterlimit:4;stroke-opacity:0;stroke-dasharray:none;stroke-dashoffset:0;marker:none;visibility:visible;display:inline;overflow:visible;enable-background:accumulate"
               id="path5142"
               d="m 282.59204,450.7409 c 3.51331,4.60478 7.59969,8.754 12.13827,12.34845 l 85.88747,0 c 4.54133,-3.5957 8.62318,-7.74135 12.13827,-12.34845 l -110.16401,0 z"
               inkscape:connector-curvature="0" />
            <path
               style="color:#000000;fill:#ffcba2;fill-opacity:1;fill-rule:nonzero;stroke:#ffffff;stroke-width:0.84074605;stroke-linecap:round;stroke-linejoin:round;stroke-miterlimit:4;stroke-opacity:0;stroke-dasharray:none;stroke-dashoffset:0;marker:none;visibility:visible;display:inline;overflow:visible;enable-background:accumulate"
               id="path5144"
               d="m 286.70424,361.89569 c -9.05314,9.83808 -15.29034,22.3067 -17.44548,36.12581 l 136.83142,0 c -2.15514,-13.81911 -8.39234,-26.28773 -17.44548,-36.12581 l -101.94046,0 z"
               inkscape:connector-curvature="0" />
            <path
               style="color:#000000;fill:#fe7110;fill-opacity:1;fill-rule:nonzero;stroke:#ffffff;stroke-width:0.84074605;stroke-linecap:round;stroke-linejoin:round;stroke-miterlimit:4;stroke-opacity:0;stroke-dasharray:none;stroke-dashoffset:0;marker:none;visibility:visible;display:inline;overflow:visible;enable-background:accumulate"
               id="path5146"
               d="m 270.34868,392.49296 c -1.08805,4.5125 -1.70951,9.19499 -1.86541,14.00368 l 138.38155,0 c -0.15591,-4.80869 -0.77737,-9.49118 -1.86541,-14.00368 l -134.65073,0 z"
               inkscape:connector-curvature="0" />
            <path
               style="color:#000000;fill:#fe5210;fill-opacity:1;fill-rule:nonzero;stroke:#ffffff;stroke-width:0.84074605;stroke-linecap:round;stroke-linejoin:round;stroke-miterlimit:4;stroke-opacity:0;stroke-dasharray:none;stroke-dashoffset:0;marker:none;visibility:visible;display:inline;overflow:visible;enable-background:accumulate"
               id="path5148"
               d="m 337.68718,339.52596 c -23.0345,0 -43.45113,11.25789 -56.04098,28.55909 l 112.05569,0 c -12.58985,-17.3012 -32.98021,-28.55909 -56.01471,-28.55909 z"
               inkscape:connector-curvature="0" />
          </g>
          <rect
             style="color:#000000;fill:#fe5210;fill-opacity:1;fill-rule:nonzero;stroke:#ffffff;stroke-width:1.69107306;stroke-linecap:round;stroke-linejoin:round;stroke-miterlimit:4;stroke-opacity:0;stroke-dasharray:10.14643895, 3.38214632;stroke-dashoffset:0;marker:none;visibility:visible;display:inline;overflow:visible;enable-background:accumulate"
             id="rect5150"
             y="130.18227"
             x="432.03085"
             ry="7.4110627"
             height="77.753784"
             width="20.044237" />
        </g>
      </g>
      <g
         transform="matrix(3.8015828,0.52825312,0.52825312,-3.8015828,-806.89767,1580.6903)"
         id="g5152">
        <path
           inkscape:connector-curvature="0"
           d="m 501.75929,155.05818 c -44.52753,0 -80.9779,8.6396 -80.9779,19.33616 0,3.45349 4.63518,7.08078 11.22944,9.88838 0,-0.78862 0,-1.48709 0,-2.46415 -1.75586,-1.56325 -2.84747,-3.26132 -2.90338,-5.00501 -0.35616,-11.10819 34.04265,-20.19455 79.21434,-21.44288 1.41162,-0.039 2.82414,-0.0726 4.21875,-0.0937 -3.53402,-0.1137 -7.11767,-0.21875 -10.78125,-0.21875 z"
           id="path5154"
           style="fill:#ffffff;fill-opacity:1;stroke:none" />
        <path
           inkscape:connector-curvature="0"
           d="m 489.84293,156.01375 a 5.4548717,5.4548717 0 1 1 -10.90974,0 5.4548717,5.4548717 0 1 1 10.90974,0 z"
           id="path5156"
           style="color:#000000;fill:#ffffff;fill-opacity:1;fill-rule:nonzero;stroke:#ffffff;stroke-width:0.54212689;stroke-linecap:round;stroke-linejoin:round;stroke-miterlimit:4;stroke-opacity:0;stroke-dasharray:none;stroke-dashoffset:0;marker:none;visibility:visible;display:inline;overflow:visible;enable-background:accumulate" />
      </g>
    </g>
  </g>
</svg>
